<?xml version="1.0" encoding="UTF-8" standalone="no"?>
<svg width="200px" height="200px" viewBox="0 0 200 200" version="1.1" xmlns="http://www.w3.org/2000/svg" xmlns:xlink="http://www.w3.org/1999/xlink" xmlns:sketch="http://www.bohemiancoding.com/sketch/ns">
    <!-- Generator: Sketch 3.2.2 (9983) - http://www.bohemiancoding.com/sketch -->
    <title>Shape</title>
    <desc>Created with Sketch.</desc>
    <defs></defs>
    <g id="Page-1" stroke="none" stroke-width="1" fill="none" fill-rule="evenodd" sketch:type="MSPage">
        <g id="Mug" sketch:type="MSLayerGroup" fill="#1B5E20">
            <g id="Page-1" sketch:type="MSShapeGroup">
                <g id="Mug">
                    <g id="_x34_03-coffee-mug.png">
                        <path d="M157.142858,50.2714286 L157.142858,42.8571429 C157.135714,19.1928571 121.964286,0 78.5714286,0 C35.1785714,0 0.00714285714,19.1928571 0,42.8571429 L0,157.142858 C0,180.807142 35.1785714,200 78.5714286,200 C121.964286,200 157.142858,180.807142 157.142858,157.142858 L157.142858,156.871429 C199.914286,154.157143 200,126.771429 200,103.571429 C200,80.3714286 199.914286,52.9928571 157.142858,50.2714286 L157.142858,50.2714286 L157.142858,50.2714286 Z M78.5714286,64.2857142 C47.0142857,64.2857142 21.4285714,54.6928571 21.4285714,42.8571429 C21.4285714,31.0285714 47.0142857,21.4285714 78.5714286,21.4285714 C110.128571,21.4285714 135.714286,31.0285714 135.714286,42.8571429 C135.714286,54.6928571 110.128571,64.2857142 78.5714286,64.2857142 L78.5714286,64.2857142 L78.5714286,64.2857142 Z M157.142858,135.4 L157.142858,71.75 C181.5,73.8357142 178.571429,87.1857143 178.571429,103.571429 C178.571429,119.964286 181.5,133.307142 157.142858,135.4 L157.142858,135.4 L157.142858,135.4 Z" id="Shape"></path>
                    </g>
                </g>
            </g>
        </g>
    </g>
</svg>