<?xml version="1.0" encoding="utf-8"?>
<svg width="16" height="16" viewBox="0 0 16 16" xmlns="http://www.w3.org/2000/svg">
  <path fill="#000" fill-rule="nonzero" stroke="#000" stroke-width=".5" d="M12.227 4.477h-.704V3.068C11.523 1.512 8.999.25 5.886.25 2.773.25.25 1.512.25 3.068v9.864c0 1.556 2.523 2.818 5.636 2.818s5.637-1.262 5.637-2.818v-1.057h.704a3.523 3.523 0 0 0 3.523-3.523V8a3.523 3.523 0 0 0-3.523-3.523zm-6.34.705c-2.724 0-4.932-.947-4.932-2.114C.955 1.901 3.163.955 5.886.955c2.724 0 4.932.946 4.932 2.113S8.61 5.182 5.886 5.182zm9.158 3.17a2.818 2.818 0 0 1-2.818 2.818h-.704V5.182h.704A2.818 2.818 0 0 1 15.045 8v.352z"/>
</svg>